#N canvas 38 229 573 221 10;
#X obj 6 -90 zac.videoprojecteur;
#X obj 166 -90 zac.sequenceur;
#X obj 166 -32 loadbang;
#X msg 166 41 open data/prypiat_*.tif \$1;
#X obj 166 65 zac.image;
#N canvas 605 277 287 169 init----------- 0;
#X obj 6 2 inlet;
#X obj 36 29 value NB_IMAGES;
#X obj 157 29 s DUREE_IMAGE;
#X obj 157 4 inlet;
#N canvas 0 22 321 142 gui 0;
#X obj 57 8 loadbang;
#X msg 99 65 wm title . "Prypiat.fr";
#X msg -41 65 menu_toggle_console;
#X obj 60 113 sys_gui;
#X connect 0 0 1 0;
#X connect 0 0 2 0;
#X connect 1 0 3 0;
#X connect 2 0 3 0;
#X restore 7 141 pd gui;
#X msg 6 53 \; pd dsp 1 \; 1.ctl Activate 1 \, Alpha 1 \, Ordre 11
\; 2.ctl Activate 1 \, Alpha 0.3 \, Ordre 12 \; 3.ctl Activate 1 \,
Alpha 0.3 \, Ordre 13 \; GLOBALSCALING 1;
#X connect 0 0 5 0;
#X connect 0 0 1 0;
#X connect 3 0 2 0;
#X restore 177 15 pd init-----------;
#X msg 166 -10 33;
#X msg 236 -10 10;
#N canvas 579 151 521 385 audio----------------------- 0;
#X obj 63 243 hip~ 5;
#X obj 92 268 dac~;
#X obj 113 243 hip~ 5;
#X obj 13 185 readsf~ 2 44100;
#X obj -23 300 send~ PRYPIAT_BO;
#X msg 13 101 open ../2010-prypiat-gorgonbasse-Gregory_DAVID-LicenceArtLibre.wav
\, start;
#X obj 246 226 hsl 128 15 0 1 0 0 empty empty empty -2 -8 0 10 -4034
-1 -1 12700 1;
#X obj 243 205 line;
#X msg 299 173 1 200;
#X obj 13 42 delay 6000;
#X obj 165 156 loadbang;
#X obj 243 285 pack f f;
#X msg 243 305 \; 1.ctl Activate 1 \, Alpha \$1 \, Ordre 11 \; 2.ctl
Activate 1 \, Alpha \$2 \, Ordre 12 \; 3.ctl Activate 1 \, Alpha \$2
\, Ordre 13;
#X obj 13 70 t b b;
#X obj 13 14 t b;
#X obj 261 264 t b a;
#X obj -23 277 +~;
#X obj -23 237 /~ 2;
#X obj 13 260 /~ 2;
#X obj 288 244 / 4;
#X obj 119 42 delay 630000;
#X obj 302 -12 inlet STOP;
#X obj 13 -11 inlet START;
#X msg 261 11 stop;
#X obj 289 205 r MRMR_CALQUES;
#X obj 56 206 *~;
#X obj 25 166 hsl 128 15 0 1 0 1 empty MRMR_AMPLITUDE amplitude -2
-8 0 10 -4034 -1 -1 12700 1;
#X obj 13 207 *~;
#X msg 243 173 0 200;
#X obj 387 204 line;
#X obj 387 226 s MRMR_AMPLITUDE;
#X connect 0 0 1 0;
#X connect 2 0 1 1;
#X connect 3 0 27 0;
#X connect 3 1 25 0;
#X connect 5 0 3 0;
#X connect 6 0 11 0;
#X connect 6 0 19 0;
#X connect 7 0 6 0;
#X connect 8 0 7 0;
#X connect 8 0 29 0;
#X connect 9 0 13 0;
#X connect 10 0 28 0;
#X connect 11 0 12 0;
#X connect 13 0 5 0;
#X connect 13 0 8 0;
#X connect 13 1 20 0;
#X connect 14 0 9 0;
#X connect 14 0 28 0;
#X connect 14 0 23 0;
#X connect 15 0 11 0;
#X connect 15 1 11 1;
#X connect 16 0 4 0;
#X connect 17 0 16 0;
#X connect 18 0 16 1;
#X connect 19 0 15 0;
#X connect 20 0 14 0;
#X connect 21 0 23 0;
#X connect 21 0 28 0;
#X connect 22 0 14 0;
#X connect 23 0 3 0;
#X connect 23 0 20 0;
#X connect 24 0 6 0;
#X connect 25 0 18 0;
#X connect 25 0 2 0;
#X connect 26 0 25 1;
#X connect 26 0 27 1;
#X connect 27 0 17 0;
#X connect 27 0 0 0;
#X connect 28 0 7 0;
#X connect 29 0 30 0;
#X restore 359 60 pd audio-----------------------;
#N canvas 340 275 251 182 actions--------------------- 0;
#X msg 76 115 \; 2.ctl Xscale \$1 \; 3.ctl Yscale \$1;
#X obj 76 34 inlet;
#X connect 1 0 0 0;
#X restore 360 11 pd actions---------------------;
#N canvas 79 22 330 276 traitement------------------ 0;
#N canvas 188 125 220 239 variation-aleatoire------------- 0;
#X obj 18 51 metro 10000;
#X obj 18 33 tgl 15 0 empty empty empty 17 7 0 10 -262144 -1 -1 1 1
;
#X obj 18 79 random 100;
#X obj 18 138 pack f 5000;
#X obj 18 160 line 1 20;
#X obj 18 9 loadbang;
#X obj 18 192 outlet;
#X obj 18 106 expr max($f1 /100 * 3 \, 1);
#X connect 0 0 2 0;
#X connect 1 0 0 0;
#X connect 2 0 7 0;
#X connect 3 0 4 0;
#X connect 4 0 6 0;
#X connect 5 0 1 0;
#X connect 7 0 3 0;
#X restore 96 57 pd variation-aleatoire-------------;
#X obj 53 16 adc~;
#X obj 53 38 env~;
#X floatatom 53 203 5 0 0 0 - - -;
#X obj 18 204 + 1;
#X obj 53 148 max 0;
#X obj 54 174 / 1000;
#X obj 53 60 - 85;
#X obj 52 124 * 2;
#X obj 80 82 hsl 128 15 1 3 0 0 empty empty empty -2 -8 0 10 -262144
-1 -1 8318 1;
#X floatatom 77 103 5 0 0 0 - - -;
#X obj 79 243 outlet;
#X obj 174 13 receive~ PRYPIAT_BO;
#X connect 0 0 9 0;
#X connect 1 0 2 0;
#X connect 2 0 7 0;
#X connect 4 0 11 0;
#X connect 5 0 6 0;
#X connect 6 0 3 0;
#X connect 6 0 4 0;
#X connect 7 0 8 0;
#X connect 8 0 5 0;
#X connect 9 0 10 0;
#X connect 10 0 8 1;
#X connect 12 0 2 0;
#X restore 360 -12 pd traitement------------------;
#X obj 359 38 bng 15 250 50 0 empty START empty 17 7 0 10 -262144 -1
-1;
#X obj 542 38 bng 15 250 50 0 empty STOP empty 17 7 0 10 -262144 -1
-1;
#N canvas 504 22 274 441 net_server_udp-------------- 0;
#X obj 18 14 udpreceive 12345;
#X obj 18 38 unpackOSC;
#X obj 18 82 routeOSC /mrmr;
#X obj 100 126 routeOSC /horizontal;
#X obj 18 59 pipelist;
#X obj 57 410 s START;
#X obj 18 389 moses 1;
#X obj 18 367 routeOSC /collibri;
#X obj 100 146 routeOSC /2 /3;
#X obj 100 227 routeOSC /collibri;
#X obj 100 248 s MRMR_CALQUES;
#X obj 140 177 routeOSC /collibri;
#X obj 140 198 s MRMR_AMPLITUDE;
#X obj 58 316 moses 1;
#X obj 58 294 routeOSC /collibri;
#X obj 97 337 s STOP;
#X obj 18 271 routeOSC /1 /4;
#X obj 18 105 routeOSC /pushbutton /slider;
#X connect 0 0 1 0;
#X connect 1 0 4 0;
#X connect 1 1 4 1;
#X connect 2 0 17 0;
#X connect 3 0 8 0;
#X connect 4 0 2 0;
#X connect 6 1 5 0;
#X connect 7 0 6 0;
#X connect 8 0 9 0;
#X connect 8 1 11 0;
#X connect 9 0 10 0;
#X connect 11 0 12 0;
#X connect 13 1 15 0;
#X connect 14 0 13 0;
#X connect 16 0 7 0;
#X connect 16 1 14 0;
#X connect 17 0 16 0;
#X connect 17 1 3 0;
#X restore 360 -33 pd net_server_udp--------------;
#X connect 2 0 6 0;
#X connect 2 0 7 0;
#X connect 3 0 4 0;
#X connect 6 0 5 0;
#X connect 6 0 3 0;
#X connect 7 0 5 1;
#X connect 10 0 9 0;
#X connect 11 0 8 0;
#X connect 12 0 8 1;
