#N canvas 420 30 567 220 10;
#X obj 6 -90 zac.videoprojecteur;
#X obj 166 -90 zac.sequenceur;
#X obj 166 -32 loadbang;
#X msg 166 41 open data/prypiat_*.tif \$1;
#X obj 166 65 zac.image;
#N canvas 605 277 272 157 init----------- 0;
#X obj 6 2 inlet;
#X obj 36 29 value NB_IMAGES;
#X msg 6 53 \; pd dsp 1 \; 1.ctl Activate 1 \, Alpha 1 \, Ordre 11
\; 2.ctl Activate 1 \, Alpha 0.3 \, Ordre 12 \; 3.ctl Activate 1 \,
Alpha 0.3 \, Ordre 13;
#X obj 157 29 s DUREE_IMAGE;
#X obj 157 4 inlet;
#N canvas 0 22 321 142 gui 0;
#X obj 57 8 loadbang;
#X msg 99 65 wm title . "Prypiat.fr";
#X msg -41 65 menu_toggle_console;
#X obj 60 113 sys_gui;
#X connect 0 0 1 0;
#X connect 0 0 2 0;
#X connect 1 0 3 0;
#X connect 2 0 3 0;
#X restore 7 131 pd gui;
#X connect 0 0 2 0;
#X connect 0 0 1 0;
#X connect 4 0 3 0;
#X restore 177 15 pd init-----------;
#N canvas 79 22 330 276 environnement--------------- 0;
#N canvas 188 125 220 239 variation-aleatoire------------- 0;
#X obj 18 51 metro 10000;
#X obj 18 33 tgl 15 0 empty empty empty 17 7 0 10 -262144 -1 -1 1 1
;
#X obj 18 79 random 100;
#X obj 18 138 pack f 5000;
#X obj 18 160 line 1 20;
#X obj 18 9 loadbang;
#X obj 18 192 outlet;
#X obj 18 106 expr max($f1 /100 * 3 \, 1);
#X connect 0 0 2 0;
#X connect 1 0 0 0;
#X connect 2 0 7 0;
#X connect 3 0 4 0;
#X connect 4 0 6 0;
#X connect 5 0 1 0;
#X connect 7 0 3 0;
#X restore 96 57 pd variation-aleatoire-------------;
#X obj 53 16 adc~;
#X obj 53 38 env~;
#X floatatom 53 203 5 0 0 0 - - -;
#X obj 18 204 + 1;
#X obj 53 148 max 0;
#X obj 54 174 / 1000;
#X obj 53 60 - 85;
#X obj 52 124 * 2;
#X obj 80 82 hsl 128 15 1 3 0 0 empty empty empty -2 -8 0 10 -262144
-1 -1 317 1;
#X floatatom 77 103 5 0 0 0 - - -;
#X obj 79 243 outlet;
#X obj 115 22 receive~ PRYPIAT_BO;
#X connect 0 0 9 0;
#X connect 1 0 2 0;
#X connect 2 0 7 0;
#X connect 4 0 11 0;
#X connect 5 0 6 0;
#X connect 6 0 3 0;
#X connect 6 0 4 0;
#X connect 7 0 8 0;
#X connect 8 0 5 0;
#X connect 9 0 10 0;
#X connect 10 0 8 1;
#X connect 12 0 2 0;
#X restore 360 -32 pd environnement---------------;
#X msg 166 -10 33;
#X msg 236 -10 10;
#N canvas 687 285 495 431 audio----------------------- 1;
#X obj 17 333 *~;
#X obj 50 264 line~;
#X msg 66 244 0 100;
#X obj 17 352 hip~ 5;
#X obj 97 386 dac~;
#X obj 157 333 *~;
#X obj 157 352 hip~ 5;
#X obj 12 155 readsf~ 2 44100;
#X obj 197 225 send~ PRYPIAT_BO;
#X obj 13 -11 inlet bang;
#X msg 13 101 open ../2010-prypiat-gorgonbasse-Gregory_DAVID-LicenceArtLibre.wav
\, start;
#X obj 13 70 t b;
#X obj 291 263 hsl 128 15 0 1 0 0 empty empty empty -2 -8 0 10 -262144
-1 -1 12700 1;
#X obj 210 258 line;
#X msg 50 223 1 200;
#X obj 13 42 delay 6000;
#X msg 185 25 0 100;
#X obj 193 -2 loadbang;
#X obj 243 305 pack f f;
#X msg 243 325 \; 1.ctl Activate 1 \, Alpha \$1 \, Ordre 11 \; 2.ctl
Activate 1 \, Alpha \$2 \, Ordre 12 \; 3.ctl Activate 1 \, Alpha \$2
\, Ordre 13;
#X obj 301 282 / 3;
#X obj 244 279 t b;
#X connect 0 0 3 0;
#X connect 1 0 0 1;
#X connect 1 0 5 1;
#X connect 2 0 1 0;
#X connect 3 0 4 0;
#X connect 5 0 6 0;
#X connect 6 0 4 1;
#X connect 7 0 0 0;
#X connect 7 0 8 0;
#X connect 7 1 5 0;
#X connect 9 0 15 0;
#X connect 9 0 16 0;
#X connect 10 0 7 0;
#X connect 11 0 10 0;
#X connect 11 0 14 0;
#X connect 12 0 18 0;
#X connect 12 0 20 0;
#X connect 13 0 12 0;
#X connect 14 0 1 0;
#X connect 14 0 13 0;
#X connect 15 0 11 0;
#X connect 16 0 13 0;
#X connect 16 0 1 0;
#X connect 17 0 16 0;
#X connect 18 0 19 0;
#X connect 20 0 21 0;
#X connect 20 0 18 1;
#X connect 21 0 18 0;
#X restore 360 77 pd audio-----------------------;
#N canvas 340 275 251 182 traitement------------------ 0;
#X msg 76 115 \; 2.ctl Xscale \$1 \; 3.ctl Yscale \$1;
#X obj 76 34 inlet;
#X connect 1 0 0 0;
#X restore 360 11 pd traitement------------------;
#X obj 360 55 bng 15 250 50 0 empty empty empty 17 7 0 10 -262144 -1
-1;
#X connect 2 0 7 0;
#X connect 2 0 8 0;
#X connect 3 0 4 0;
#X connect 6 0 10 0;
#X connect 7 0 5 0;
#X connect 7 0 3 0;
#X connect 8 0 5 1;
#X connect 11 0 9 0;
