#N canvas 335 25 567 220 10;
#X declare -lib GEM;
#X declare -path ./lib/sssad;
#X obj 6 -90 zac.videoprojecteur;
#X obj 166 -90 zac.sequenceur;
#X obj 166 -32 loadbang;
#X msg 166 41 open data/prypiat_*.tif \$1;
#N canvas 340 275 251 182 traitement------------------- 1;
#X msg 76 115 \; 2.ctl Xscale \$1 \; 3.ctl Yscale \$1;
#X obj 76 34 inlet;
#X connect 1 0 0 0;
#X restore 360 11 pd traitement-------------------;
#X msg 166 -10 34;
#X obj 166 65 zac.image;
#N canvas 265 326 319 144 init----------- 1;
#X obj 16 12 inlet;
#X obj 46 39 value NB_IMAGES;
#X msg 16 63 \; pd dsp 1 \; 1.ctl Activate 1 \, Alpha 1 \, Ordre 11
\; 2.ctl Activate 1 \, Alpha 0.3 \, Ordre 12 \; 3.ctl Activate 1 \,
Alpha 0.3 \, Ordre 13;
#X obj 154 13 import GEM;
#X obj 154 32 declare -path ./lib/sssad;
#X connect 0 0 2 0;
#X connect 0 0 1 0;
#X restore 177 15 pd init-----------;
#N canvas 0 22 330 276 environnement--------------- 1;
#N canvas 188 125 220 239 variation-aleatoire------------- 0;
#X obj 18 51 metro 10000;
#X obj 18 33 tgl 15 0 empty empty empty 17 7 0 10 -262144 -1 -1 1 1
;
#X obj 18 79 random 100;
#X obj 18 138 pack f 5000;
#X obj 18 160 line 1 20;
#X obj 18 9 loadbang;
#X obj 18 192 outlet;
#X obj 18 106 expr max($f1 /100 * 3 \, 1);
#X connect 0 0 2 0;
#X connect 1 0 0 0;
#X connect 2 0 7 0;
#X connect 3 0 4 0;
#X connect 4 0 6 0;
#X connect 5 0 1 0;
#X connect 7 0 3 0;
#X restore 96 57 pd variation-aleatoire-------------;
#X obj 53 16 adc~;
#X obj 53 38 env~;
#X floatatom 53 203 5 0 0 0 - - -;
#X obj 18 204 + 1;
#X obj 53 148 max 0;
#X obj 54 174 / 1000;
#X obj 53 60 - 85;
#X obj 52 124 * 2;
#X obj 80 82 hsl 128 15 1 3 0 0 empty empty empty -2 -8 0 10 -262144
-1 -1 2729 1;
#X floatatom 77 103 5 0 0 0 - - -;
#X obj 79 243 outlet;
#X connect 0 0 9 0;
#X connect 1 0 2 0;
#X connect 2 0 7 0;
#X connect 4 0 11 0;
#X connect 5 0 6 0;
#X connect 6 0 3 0;
#X connect 6 0 4 0;
#X connect 7 0 8 0;
#X connect 8 0 5 0;
#X connect 9 0 10 0;
#X connect 10 0 8 1;
#X restore 360 -32 pd environnement---------------;
#X connect 2 0 5 0;
#X connect 3 0 6 0;
#X connect 5 0 7 0;
#X connect 5 0 3 0;
#X connect 8 0 4 0;
