#N canvas 697 298 523 261 8;
#X obj 158 4 tgl 18 1 \$0-s_activated \$0-activated empty 5 20 0 10
-262144 -1 -262144 0 1;
#X obj 8 24 hsl 150 8 0.005 50 1 1 \$0-Xscale \$0-Xscale Xscale 5 4
0 8 -228856 -1 -1 8571 1;
#X obj 8 44 hsl 150 8 -20 20 0 1 \$0-Xpos \$0-Xpos Xpos 5 4 0 8 -228856
-1 -1 7450 1;
#X obj 8 54 hsl 150 8 -10 10 0 1 \$0-Ypos \$0-Ypos Ypos 5 4 0 8 -228856
-1 -1 7450 1;
#X obj 162 24 nbx 4 8 0 50 0 1 \$0-Xscale \$0-Xscale empty 0 -8 0 8
-262144 -1 -1 0.999792 256;
#X obj 162 44 nbx 4 8 -20 20 0 1 \$0-Xpos \$0-Xpos empty 0 -8 0 8 -262144
-1 -1 0 256;
#X obj 162 54 nbx 4 8 -10 10 0 1 \$0-Ypos \$0-Ypos empty 0 -8 0 8 -262144
-1 -1 0 256;
#N canvas 372 312 266 140 init 0;
#X obj 6 10 loadbang;
#X obj 6 73 s \$0-activated;
#X msg 6 51 0;
#X connect 0 0 2 0;
#X connect 2 0 1 0;
#X restore 209 1 pd init;
#X obj 8 34 hsl 150 8 0.005 50 1 1 \$0-Yscale \$0-Yscale Yscale 5 4
0 8 -228856 -1 -1 8571 1;
#X obj 162 34 nbx 4 8 0 50 0 1 \$0-Yscale \$0-Yscale empty 0 -8 0 8
-262144 -1 -1 0.999792 256;
#X obj 179 4 tgl 18 1 \$0-s_modeAlpha \$0-modeAlpha empty 1 20 0 10
-1 -262144 -262144 0 1;
#X obj 142 64 nbx 3 8 -50 -2 0 1 \$0-render-order \$0-render-order
n°ordre 0 14 0 8 -262144 -1 -1 -11 256;
#N canvas 265 58 274 117 brancheGem 0;
#X obj 9 51 gemhead;
#X msg 112 34 set \$1;
#X obj -21 81 outlet gemList;
#X obj 112 12 r \$0-render-order;
#X obj 9 22 r \$0-s_activated;
#X connect 0 0 2 0;
#X connect 1 0 0 0;
#X connect 3 0 1 0;
#X connect 4 0 0 0;
#X restore 432 8 pd brancheGem;
#N canvas 357 213 278 163 position 0;
#X obj 9 2 inlet gemList;
#X obj 11 134 outlet gemList;
#X obj 66 102 translateXYZ 0 0 0;
#X obj 88 -2 r \$0-Xpos;
#X obj 178 -2 r \$0-Ypos;
#X obj 88 59 *;
#X obj 98 17 r GLOBALSCALING;
#X obj 98 37 t b f;
#X obj 178 58 *;
#X obj 188 16 r GLOBALSCALING;
#X obj 188 36 t b f;
#X connect 0 0 2 0;
#X connect 2 0 1 0;
#X connect 3 0 5 0;
#X connect 4 0 8 0;
#X connect 5 0 2 1;
#X connect 6 0 7 0;
#X connect 7 0 5 0;
#X connect 7 1 5 1;
#X connect 8 0 2 2;
#X connect 9 0 10 0;
#X connect 10 0 8 0;
#X connect 10 1 8 1;
#X restore 432 35 pd position;
#N canvas 198 80 238 212 echelle 0;
#X obj 9 25 inlet gemList;
#X obj 11 107 outlet gemList;
#X obj 92 87 scale;
#X obj 119 -3 pack f f f;
#X obj 125 -23 t b;
#X obj 105 38 t b;
#X obj 105 59 float 1;
#X obj 119 -63 r \$0-Xscale;
#X obj 147 -43 r \$0-Yscale;
#X obj 137 17 r GLOBALSCALING;
#X connect 0 0 2 0;
#X connect 2 0 1 0;
#X connect 3 0 5 0;
#X connect 3 0 2 2;
#X connect 4 0 3 0;
#X connect 5 0 6 0;
#X connect 6 0 2 1;
#X connect 7 0 3 0;
#X connect 8 0 3 1;
#X connect 8 0 4 0;
#X connect 9 0 6 1;
#X connect 9 0 5 0;
#X restore 432 59 pd echelle;
#N canvas 0 22 352 202 couleur 0;
#X obj 10 50 inlet gemList;
#X obj 12 182 outlet gemList;
#X obj 75 147 colorRGB 1 1 1 1;
#X obj 161 108 r \$0-Alpha;
#X connect 0 0 2 0;
#X connect 2 0 1 0;
#X connect 3 0 2 4;
#X restore 432 86 pd couleur;
#N canvas 281 147 188 146 alpha 0;
#X obj 10 10 inlet gemList;
#X obj 12 92 outlet gemList;
#X obj 25 74 alpha;
#X obj 52 31 r \$0-s_modeAlpha;
#X connect 0 0 2 0;
#X connect 2 0 1 0;
#X connect 3 0 2 1;
#X restore 432 113 pd alpha;
#N canvas 894 42 342 203 objet 0;
#X obj 31 21 inlet gemList;
#X obj 26 181 outlet gemList;
#X obj 62 47 pix_texture;
#X obj 62 66 pix_coordinate;
#X obj 62 164 rectangle 4 3;
#X obj 181 97 value globGEMampXcoord;
#X obj 181 116 expr $f1 * 90 / 100 / 2;
#X msg 181 139 4;
#X obj 31 82 t b b;
#X obj 182 160 expr $f1 * 90 / 100;
#X obj 127 22 r TEXTURE_ID;
#X connect 0 0 2 0;
#X connect 0 0 8 0;
#X connect 2 0 3 0;
#X connect 3 0 4 0;
#X connect 4 0 1 0;
#X connect 5 0 6 0;
#X connect 6 0 4 1;
#X connect 7 0 9 0;
#X connect 8 0 7 0;
#X connect 8 1 5 0;
#X connect 9 0 4 2;
#X connect 10 0 2 1;
#X restore 432 140 pd objet;
#X obj 21 215 s \$0-Xscale;
#X obj 41 194 s \$0-Yscale;
#X obj 62 172 s \$0-Xpos;
#X obj 83 152 s \$0-Ypos;
#X obj 227 204 s \$0-Alpha;
#X obj 248 186 s \$0-modeAlpha;
#X obj 21 88 r \$1.ctl;
#X obj 112 64 nbx 3 8 0 1 0 1 \$0-Alpha \$0-Alpha empty 0 -8 0 8 -262144
-1 -1 1 256;
#X obj 8 64 hsl 100 8 0 1 0 1 \$0-Alpha \$0-Alpha Alpha 5 4 0 8 -1
-262144 -262144 9900 1;
#X obj 169 133 s \$0-activated;
#X obj 281 160 s \$0-render-order;
#X obj 276 135 * -1;
#X obj 21 107 route Xscale Yscale Xpos Ypos Activate Alpha modeAlpha
Ordre;
#X obj 270 40 inlet;
#X connect 12 0 13 0;
#X connect 13 0 14 0;
#X connect 14 0 15 0;
#X connect 15 0 16 0;
#X connect 16 0 17 0;
#X connect 24 0 30 0;
#X connect 29 0 28 0;
#X connect 30 0 18 0;
#X connect 30 1 19 0;
#X connect 30 2 20 0;
#X connect 30 3 21 0;
#X connect 30 4 27 0;
#X connect 30 5 22 0;
#X connect 30 6 23 0;
#X connect 30 7 29 0;
#X connect 31 0 27 0;
#X coords 0 0 1 1 200 85 0;
