#N canvas 624 60 618 295 8;
#X obj 1 -16 cnv 15 100 10 empty empty empty 20 12 0 14 -262144 -66577
0;
#X obj 5 146 vradio 10 1 1 5 select-GEM-position empty position_fenetre
0 -5 0 8 -262144 -1 -1 2;
#X text 16 144 droite;
#X text 16 154 gauche;
#X text 16 164 haut;
#X text 16 174 bas;
#X obj 5 26 vradio 10 1 1 4 select-main-resolution empty resolution_principale
0 -5 0 8 -262144 -1 -1 2;
#X text 15 24 1024x768;
#X text 15 34 1280x1024;
#X text 15 44 1280x800;
#X text 15 54 1280x960;
#X msg 253 96 0 \, destroy;
#X msg 176 155 create \, 1;
#X obj 351 227 gemwin;
#X text 16 184 principale;
#X obj 5 86 vradio 10 1 1 4 select-GEM-dimension empty dimension_GEM
0 -5 0 8 -262144 -1 -1 1;
#X text 15 84 800x600;
#X text 15 94 1024x768;
#X text 15 104 1280x1024;
#X text 15 114 2048x768 (splitter);
#N canvas 437 22 345 265 GEM.init 0;
#X msg 143 84 topmost 1;
#X obj 283 228 gemwin;
#X obj 14 7 inlet bang;
#X msg 101 137 frame 30;
#X msg 115 120 menubar 1;
#X msg 72 174 lighting 0;
#X obj 14 27 bng 15 250 50 0 empty empty empty 17 7 0 10 -262144 -1
-1;
#X msg 129 102 border 1;
#X obj 14 45 trigger b b b b b b b b b b;
#X msg 87 155 cursor 1;
#X connect 0 0 1 0;
#X connect 2 0 6 0;
#X connect 3 0 1 0;
#X connect 4 0 1 0;
#X connect 5 0 1 0;
#X connect 6 0 8 0;
#X connect 7 0 1 0;
#X connect 8 4 5 0;
#X connect 8 5 9 0;
#X connect 8 6 3 0;
#X connect 8 7 4 0;
#X connect 8 8 7 0;
#X connect 8 9 0 0;
#X connect 9 0 1 0;
#X restore 214 115 pd GEM.init;
#N canvas 721 22 481 332 GEM.dimensions 0;
#X obj 14 28 select 0 1 2 3;
#X obj 14 8 inlet selecteur;
#X obj 220 134 unpack f f;
#X obj 220 257 s globGEMWidth;
#X obj 267 240 s globGEMHeight;
#X msg 74 146 dimen \$1 \$2;
#X obj 74 209 outlet dimension;
#X msg 74 119 list 800 600;
#X msg 74 98 list 1024 768;
#X msg 74 77 list 1280 1024;
#X msg 74 56 list 2048 768;
#X obj 90 191 s retrigger-position;
#X obj 74 167 t a b b;
#X obj 267 182 float;
#X obj 220 182 float;
#X obj 351 197 t b a;
#X obj 351 215 /;
#X obj 351 233 * 8;
#X obj 351 277 value globGEMampXcoord;
#X obj 351 254 t b a;
#X connect 0 0 7 0;
#X connect 0 1 8 0;
#X connect 0 2 9 0;
#X connect 0 3 10 0;
#X connect 1 0 0 0;
#X connect 2 0 14 0;
#X connect 2 1 13 0;
#X connect 5 0 12 0;
#X connect 7 0 5 0;
#X connect 7 0 2 0;
#X connect 8 0 2 0;
#X connect 8 0 5 0;
#X connect 9 0 2 0;
#X connect 9 0 5 0;
#X connect 10 0 2 0;
#X connect 10 0 5 0;
#X connect 12 0 6 0;
#X connect 12 1 11 0;
#X connect 12 2 13 0;
#X connect 12 2 14 0;
#X connect 13 0 4 0;
#X connect 13 0 15 0;
#X connect 14 0 3 0;
#X connect 14 0 16 0;
#X connect 15 0 16 0;
#X connect 15 1 16 1;
#X connect 16 0 17 0;
#X connect 17 0 19 0;
#X connect 19 0 18 0;
#X connect 19 1 18 0;
#X restore 466 49 pd GEM.dimensions;
#X msg 531 110 print;
#X msg 531 129 offset 0 -50;
#N canvas 806 22 435 521 GEM.window_position 0;
#X obj 102 83 route 0 1 2 3;
#X obj 36 445 unpack f f;
#X obj 224 136 unpack f f;
#X msg 36 467 offset \$1 -50;
#X msg 224 178 offset 0 \$1;
#X msg 282 118 offset 0 0;
#X obj 123 350 * -1;
#X msg 101 387 offset \$1 -50;
#X obj 178 238 + 50;
#X obj 178 258 * -1;
#X msg 156 295 offset 0 \$1;
#X obj 101 350 t b;
#X obj 98 52 list append;
#X obj 12 9 inlet position;
#X obj 178 218 r globGEMHeight;
#X obj 123 330 r globGEMWidth;
#X obj 156 276 float;
#X obj 156 258 t b;
#X obj 101 369 float;
#X obj 198 483 outlet offset;
#X obj 254 10 inlet resolution_list;
#X obj 98 34 float;
#X obj 103 9 r retrigger-position;
#X connect 0 0 1 0;
#X connect 0 1 11 0;
#X connect 0 2 17 0;
#X connect 0 3 2 0;
#X connect 0 4 5 0;
#X connect 1 0 3 0;
#X connect 2 1 4 0;
#X connect 3 0 19 0;
#X connect 4 0 19 0;
#X connect 5 0 19 0;
#X connect 6 0 18 1;
#X connect 7 0 19 0;
#X connect 8 0 9 0;
#X connect 9 0 16 1;
#X connect 10 0 19 0;
#X connect 11 0 18 0;
#X connect 12 0 0 0;
#X connect 13 0 21 0;
#X connect 14 0 8 0;
#X connect 15 0 6 0;
#X connect 16 0 10 0;
#X connect 17 0 16 0;
#X connect 18 0 7 0;
#X connect 20 0 12 1;
#X connect 21 0 12 0;
#X connect 22 0 21 0;
#X restore 344 15 pd GEM.window_position;
#X obj 176 71 t bang bang bang;
#N canvas 453 22 244 223 GEM.mainscreen_____ 0;
#X obj 32 36 select 0 1 2 3;
#X obj 32 15 inlet selecteur_resolution_principale;
#X obj 92 150 t a b;
#X msg 92 64 list 1280 960;
#X msg 92 85 list 1280 800;
#X msg 92 106 list 1280 1024;
#X msg 92 127 list 1024 768;
#X obj 92 190 outlet resolution_list;
#X obj 114 171 s retrigger-position;
#X connect 0 0 6 0;
#X connect 0 1 5 0;
#X connect 0 2 4 0;
#X connect 0 3 3 0;
#X connect 1 0 0 0;
#X connect 2 0 7 0;
#X connect 2 1 8 0;
#X connect 3 0 2 0;
#X connect 4 0 2 0;
#X connect 5 0 2 0;
#X connect 6 0 2 0;
#X restore 470 0 pd GEM.mainscreen_____;
#X msg 531 89 reset;
#X obj 470 -20 r select-main-resolution;
#X obj 466 29 r select-GEM-dimension;
#X obj 353 -4 r select-GEM-position;
#X obj 181 16 r select-main-resolution;
#X obj 192 34 r select-GEM-dimension;
#X obj 203 52 r select-GEM-position;
#X obj 174 -2 r retrigger-position;
#X obj 176 134 delay 500;
#X obj 128 82 vsl 10 100 0.1 2 1 1 GLOBALSCALING GLOBALSCALING empty
0 -9 0 10 -262144 -1 -1 7609 1;
#X obj 120 187 nbx 3 8 0.1 2 1 1 GLOBALSCALING GLOBALSCALING empty
0 -8 0 8 -262144 -1 -1 1 256;
#X msg 176 177 color 0 0 0;
#X connect 11 0 13 0;
#X connect 12 0 13 0;
#X connect 12 0 38 0;
#X connect 21 0 13 0;
#X connect 22 0 13 0;
#X connect 23 0 13 0;
#X connect 24 0 13 0;
#X connect 25 0 35 0;
#X connect 25 1 20 0;
#X connect 25 2 11 0;
#X connect 26 0 24 1;
#X connect 27 0 13 0;
#X connect 28 0 26 0;
#X connect 29 0 21 0;
#X connect 30 0 24 0;
#X connect 31 0 25 0;
#X connect 32 0 25 0;
#X connect 33 0 25 0;
#X connect 34 0 25 0;
#X connect 35 0 12 0;
#X connect 38 0 13 0;
#X coords 0 0 1 1 150 200 1 0 0;
