#N canvas 136 382 450 300 10;
#X obj 2 129 pix_texture;
#X obj 2 30 gemhead;
#X floatatom 64 163 5 0 0 0 - - -;
#X obj 83 78 r NUMERO_IMAGE_SEQUENCE;
#X obj 108 154 s TEXTURE_ID;
#X obj 2 101 pix_multiimage;
#X obj 11 58 inlet open;
#X obj 263 40 zac.calque 1;
#X obj 263 60 zac.calque 2;
#X obj 263 80 zac.calque 3;
#X obj 109 3 tgl 15 1 empty empty I/O 17 7 0 10 -262144 -1 -1 1 1;
#X connect 0 1 2 0;
#X connect 0 1 4 0;
#X connect 1 0 5 0;
#X connect 3 0 5 1;
#X connect 5 0 0 0;
#X connect 6 0 5 0;
#X connect 10 0 7 0;
#X connect 10 0 8 0;
#X connect 10 0 9 0;
#X coords 0 -1 1 1 150 20 1 0 0;
