#N canvas 0 22 467 368 10;
#X obj 204 3 tgl 15 0 empty empty play 17 7 0 10 -4034 -1 -1 1 1;
#X obj 91 273 f 1;
#X obj 118 273 + 1;
#X obj 275 6 loadbang;
#X obj 152 273 value NB_IMAGES;
#X obj 91 320 s NUMERO_IMAGE_SEQUENCE;
#X obj 91 298 mod;
#X obj 123 3 nbx 5 14 0 1e+37 0 0 empty empty empty 0 -8 0 10 -262144
-1 -1 11 256;
#X obj 53 22 nbx 11 14 0 1e+37 0 1 empty DUREE_IMAGE s/image_(±10%)
110 8 0 10 -262144 -1 -1 10 256;
#X obj 91 231 metro;
#X obj 188 151 random;
#X obj 91 252 t b b;
#X obj 179 174 t b f;
#X obj 221 130 expr $f1 * 0.2;
#X obj 153 236 nbx 16 14 0 1e+37 0 1 empty empty s/image 155 8 0 10
-262144 -1 -1 9176 256;
#X obj 13 113 * 1000;
#X obj 173 203 expr $f1 + $f2 - $f3 / 2;
#X obj 188 96 t b b;
#X obj 56 38 hsl 100 8 0 100 0 0 \$0-timer_progress \$0-timer_progress
empty -2 -8 0 10 -4034 -1 -1 669 1;
#X msg 351 166 0 \, 100 \$1;
#X obj 264 95 s \$0-timer_progress;
#X obj 250 64 line;
#X connect 0 0 9 0;
#X connect 1 0 2 0;
#X connect 1 0 6 0;
#X connect 2 0 1 1;
#X connect 3 0 0 0;
#X connect 4 0 6 1;
#X connect 6 0 5 0;
#X connect 6 0 7 0;
#X connect 8 0 15 0;
#X connect 9 0 11 0;
#X connect 9 0 17 0;
#X connect 10 0 12 0;
#X connect 11 0 1 0;
#X connect 11 1 4 0;
#X connect 12 0 16 0;
#X connect 12 1 16 1;
#X connect 13 0 10 1;
#X connect 13 0 16 2;
#X connect 14 0 19 0;
#X connect 15 0 13 0;
#X connect 15 0 16 0;
#X connect 15 0 9 1;
#X connect 16 0 14 0;
#X connect 16 0 9 1;
#X connect 17 0 10 0;
#X connect 17 1 15 0;
#X connect 19 0 21 0;
#X connect 21 0 20 0;
#X coords 0 -1 1 1 250 48 1 0 0;
