#N canvas 180 151 494 138 10;
#X obj 7 17 zac.texture \$1.tif;
#X obj 31 45 zac.calque /\$1/01 \$1.tif;
#X obj 182 3 tgl 15 0 empty empty empty 17 7 0 10 -262144 -1 -1 0 1
;
#X obj 31 65 zac.calque /\$1/02 \$1.tif;
#X obj 31 85 zac.calque /\$1/03 \$1.tif;
#X connect 2 0 1 0;
#X connect 2 0 3 0;
#X connect 2 0 4 0;
#X coords 0 0 1 1 200 20 0;
